# ProBuilder 5.2.3
# https://unity3d.com/unity/features/worldbuilding/probuilder
# 8/22/2024 12:44:57 PM

mtllib ./Cone.mtl
o Cone

g Cone
v -0.5000002 -0.996974 -1.107372E-07
v -1.685874E-07 -0.996974 0.4999999
v -1.685874E-07 0 -1.107372E-07
v -1.685874E-07 -0.996974 -1.107372E-07
v 0.4999998 -0.996974 -1.107372E-07
v -1.685874E-07 -0.996974 -0.5000002

vt 0 0
vt 1.414214 5.960464E-08
vt 0.7071068 1.222275
vt -0.5000002 -1.107372E-07
vt -1.685874E-07 0.4999999
vt 0.4999998 -1.107372E-07
vt -1.685874E-07 -0.5000002

vn -0.8938839 0.4482985 7.994643E-08
vn 0 0.4482985 0.8938839
vn 0 1 1.78333E-07
vn 0 -1 0
vn 0.8938839 0.4482985 7.994643E-08
vn 0 0.4482986 -0.8938839

usemtl ProBuilderDefault
f 1/1/1 2/2/2 3/3/3
f 4/1/4 2/5/4 1/4/4
f 2/1/2 5/2/5 3/3/3
f 4/1/4 5/6/4 2/5/4
f 5/1/5 6/2/6 3/3/3
f 4/1/4 6/7/4 5/6/4
f 6/1/6 1/2/1 3/3/3
f 4/1/4 1/4/4 6/7/4

